<?xml version="1.0" encoding="utf-8"?>
<!-- Generator: Adobe Illustrator 16.0.0, SVG Export Plug-In . SVG Version: 6.00 Build 0)  -->
<!DOCTYPE svg PUBLIC "-//W3C//DTD SVG 1.1//EN" "http://www.w3.org/Graphics/SVG/1.1/DTD/svg11.dtd">
<svg version="1.1" id="daa92041-3bd8-464c-9c92-61b3fade74bd"
	 xmlns="http://www.w3.org/2000/svg" xmlns:xlink="http://www.w3.org/1999/xlink" x="0px" y="0px" width="798.82px"
	 height="755.15px" viewBox="0 0 798.82 755.15" enable-background="new 0 0 798.82 755.15" xml:space="preserve">
<title>mail_2</title>
<path fill="none" stroke="#69F0AE" stroke-width="9" stroke-miterlimit="10" d="M23.66,448.57c0,0-0.68-2-1.78-5.721"/>
<path fill="none" stroke="#69F0AE" stroke-width="9" stroke-miterlimit="10" stroke-dasharray="12.04,12.04" d="M18.66,451.25
	c-24.31-93.6-100.1-524.98,659.66-255.68"/>
<path fill="none" stroke="#69F0AE" stroke-width="9" stroke-miterlimit="10" d="M684.01,197.57l5.65,2"/>
<path fill="#FFFFFF" d="M409.19,192.26l-0.14,63.63c-0.012,5.396-4.395,9.761-9.791,9.75l0,0l-106.29-0.24"/>
<linearGradient id="SVGID_1_" gradientUnits="userSpaceOnUse" x1="-3472.4829" y1="2885.7734" x2="-3472.4829" y2="2950.9248" gradientTransform="matrix(0.8447 0.5352 0.5352 -0.8447 2124.3599 4547.7324)">
	<stop  offset="0" style="stop-color:#808080;stop-opacity:0.25"/>
	<stop  offset="0.54" style="stop-color:#808080;stop-opacity:0.12"/>
	<stop  offset="1" style="stop-color:#808080;stop-opacity:0.1"/>
</linearGradient>
<polygon fill="url(#SVGID_1_)" points="795.23,234.52 798.82,235.08 798.26,234.55 798.561,234.55 798.09,234.39 733,172.66 
	717.2,197.59 704.061,220.33 710.15,221.28 707.45,233.6 "/>
<polygon fill="#25629E" points="719.93,198.89 707.93,219.7 795.93,234.03 739.25,194.56 "/>
<polygon opacity="0.2" enable-background="new    " points="719.93,198.89 707.93,219.7 795.93,234.03 739.25,194.56 "/>
<polygon fill="#25629E" points="734.38,176.09 795.93,234.03 719.93,198.89 "/>
<polygon fill="#25629E" points="711.17,231.93 795.689,233.54 716.79,205.52 "/>
<g id="XMLID_39_">
	<g id="XMLID_611_">
		<path id="XMLID_612_" fill="#53596A" d="M516.851,122.802h-14.288v323.167h14.288c3.981,0,7.206-3.227,7.206-7.207V130.009
			C524.057,126.027,520.832,122.802,516.851,122.802z"/>
	</g>
	<g id="XMLID_608_">
		<rect id="XMLID_610_" x="502.563" y="122.802" width="6.828" height="323.167"/>
	</g>
	<g id="XMLID_606_">
		<path id="XMLID_607_" fill="#53596A" d="M496.402,511.715H254.338c-3.403,0-6.161-2.76-6.161-6.161V64.229
			c0-3.403,2.758-6.162,6.161-6.162h242.064c3.402,0,6.16,2.759,6.16,6.162v441.325
			C502.563,508.955,499.805,511.715,496.402,511.715z"/>
	</g>
	<g id="XMLID_604_">
		<path id="XMLID_605_" fill="#30323F" d="M455.656,260.616c9.287,0,16.816-7.529,16.816-16.817V58.067V42.642
			c0-7.96-6.453-14.414-14.414-14.414H292.681c-7.959,0-14.413,6.453-14.413,14.414v15.425v185.732
			c0,9.288,7.529,16.817,16.815,16.817H455.656z"/>
	</g>
	<g id="XMLID_602_">
		<path id="XMLID_603_" fill="#30323F" d="M278.269,299.178v173.848c0,7.96,6.454,14.414,14.413,14.414h165.377
			c7.961,0,14.414-6.454,14.414-14.414V299.178c0-9.287-7.529-16.816-16.816-16.816H295.084
			C285.798,282.362,278.269,289.891,278.269,299.178z"/>
	</g>
	<g id="XMLID_600_">
		<rect id="XMLID_601_" x="297.993" y="94.228" fill="#FFFFFF" width="154.754" height="123.653"/>
	</g>
	<g id="XMLID_598_">
		<rect id="XMLID_599_" x="300.458" y="65.211" width="149.825" height="9.861"/>
	</g>
	<g id="XMLID_546_">
		<g id="XMLID_596_">
			<path id="XMLID_597_" fill="#D5D5D5" d="M395.114,325.097h-39.489c-0.617,0-1.117-0.5-1.117-1.116v-26.34
				c0-0.617,0.5-1.118,1.117-1.118h39.489c0.619,0,1.118,0.501,1.118,1.118v26.34C396.232,324.597,395.733,325.097,395.114,325.097z
				"/>
		</g>
		<g id="XMLID_594_">
			<path id="XMLID_595_" fill="#D5D5D5" d="M337.176,325.097h-39.489c-0.617,0-1.117-0.5-1.117-1.116v-26.34
				c0-0.617,0.5-1.118,1.117-1.118h39.489c0.617,0,1.118,0.501,1.118,1.118v26.34C338.293,324.597,337.793,325.097,337.176,325.097z
				"/>
		</g>
		<g id="XMLID_592_">
			<path id="XMLID_593_" fill="#D5D5D5" d="M452.011,325.097h-39.489c-0.617,0-1.117-0.5-1.117-1.116v-26.34
				c0-0.617,0.5-1.118,1.117-1.118h39.489c0.616,0,1.117,0.501,1.117,1.118v26.34C453.128,324.597,452.627,325.097,452.011,325.097z
				"/>
		</g>
		<g id="XMLID_590_">
			<path id="XMLID_591_" fill="#D5D5D5" d="M395.114,363.027h-39.489c-0.617,0-1.117-0.499-1.117-1.117v-26.34
				c0-0.616,0.5-1.117,1.117-1.117h39.489c0.619,0,1.118,0.501,1.118,1.117v26.34C396.232,362.528,395.733,363.027,395.114,363.027z
				"/>
		</g>
		<g id="XMLID_588_">
			<path id="XMLID_589_" fill="#D5D5D5" d="M337.176,363.027h-39.489c-0.617,0-1.117-0.499-1.117-1.117v-26.34
				c0-0.616,0.5-1.117,1.117-1.117h39.489c0.617,0,1.118,0.501,1.118,1.117v26.34C338.293,362.528,337.793,363.027,337.176,363.027z
				"/>
		</g>
		<g id="XMLID_586_">
			<path id="XMLID_587_" fill="#D5D5D5" d="M452.011,363.027h-39.489c-0.617,0-1.117-0.499-1.117-1.117v-26.34
				c0-0.616,0.5-1.117,1.117-1.117h39.489c0.616,0,1.117,0.501,1.117,1.117v26.34C453.128,362.528,452.627,363.027,452.011,363.027z
				"/>
		</g>
		<g id="XMLID_584_">
			<path id="XMLID_585_" fill="#D5D5D5" d="M395.114,400.958h-39.489c-0.617,0-1.117-0.501-1.117-1.117v-26.34
				c0-0.616,0.5-1.117,1.117-1.117h39.489c0.619,0,1.118,0.501,1.118,1.117v26.34C396.232,400.457,395.733,400.958,395.114,400.958z
				"/>
		</g>
		<g id="XMLID_582_">
			<path id="XMLID_583_" fill="#D5D5D5" d="M337.176,400.958h-39.489c-0.617,0-1.117-0.501-1.117-1.117v-26.34
				c0-0.616,0.5-1.117,1.117-1.117h39.489c0.617,0,1.118,0.501,1.118,1.117v26.34C338.293,400.457,337.793,400.958,337.176,400.958z
				"/>
		</g>
		<g id="XMLID_580_">
			<path id="XMLID_581_" fill="#D5D5D5" d="M452.011,400.958h-39.489c-0.617,0-1.117-0.501-1.117-1.117v-26.34
				c0-0.616,0.5-1.117,1.117-1.117h39.489c0.616,0,1.117,0.501,1.117,1.117v26.34C453.128,400.457,452.627,400.958,452.011,400.958z
				"/>
		</g>
		<g id="XMLID_578_">
			<path id="XMLID_579_" fill="#D5D5D5" d="M395.114,438.888h-39.489c-0.617,0-1.117-0.5-1.117-1.116v-26.341
				c0-0.616,0.5-1.117,1.117-1.117h39.489c0.619,0,1.118,0.501,1.118,1.117v26.341C396.232,438.388,395.733,438.888,395.114,438.888
				z"/>
		</g>
		<g id="XMLID_576_">
			<path id="XMLID_577_" fill="#D5D5D5" d="M337.176,438.888h-39.489c-0.617,0-1.117-0.5-1.117-1.116v-26.341
				c0-0.616,0.5-1.117,1.117-1.117h39.489c0.617,0,1.118,0.501,1.118,1.117v26.341C338.293,438.388,337.793,438.888,337.176,438.888
				z"/>
		</g>
		<g id="XMLID_559_">
			<path id="XMLID_575_" fill="#D5D5D5" d="M452.011,438.888h-39.489c-0.617,0-1.117-0.5-1.117-1.116v-26.341
				c0-0.616,0.5-1.117,1.117-1.117h39.489c0.616,0,1.117,0.501,1.117,1.117v26.341C453.128,438.388,452.627,438.888,452.011,438.888
				z"/>
		</g>
		<g id="XMLID_557_">
			<path id="XMLID_558_" fill="#D5D5D5" d="M395.114,247.72h-39.489c-0.617,0-1.117-0.501-1.117-1.118v-14.961
				c0-0.616,0.5-1.117,1.117-1.117h39.489c0.619,0,1.118,0.501,1.118,1.117v14.961C396.232,247.219,395.733,247.72,395.114,247.72z"
				/>
		</g>
		<g id="XMLID_555_">
			<path id="XMLID_556_" fill="#D5D5D5" d="M337.176,247.72h-39.489c-0.617,0-1.117-0.501-1.117-1.118v-14.961
				c0-0.616,0.5-1.117,1.117-1.117h39.489c0.617,0,1.118,0.501,1.118,1.117v14.961C338.293,247.219,337.793,247.72,337.176,247.72z"
				/>
		</g>
		<g id="XMLID_553_">
			<path id="XMLID_554_" fill="#D5D5D5" d="M452.011,247.72h-39.489c-0.617,0-1.117-0.501-1.117-1.118v-14.961
				c0-0.616,0.5-1.117,1.117-1.117h39.489c0.616,0,1.117,0.501,1.117,1.117v14.961C453.128,247.219,452.627,247.72,452.011,247.72z"
				/>
		</g>
		<g id="XMLID_551_">
			<path id="XMLID_552_" fill="#FFD400" d="M395.114,476.818h-39.489c-0.617,0-1.117-0.5-1.117-1.118v-26.339
				c0-0.617,0.5-1.116,1.117-1.116h39.489c0.619,0,1.118,0.499,1.118,1.116V475.7C396.232,476.318,395.733,476.818,395.114,476.818z
				"/>
		</g>
		<g id="XMLID_549_">
			<path id="XMLID_550_" fill="#39B54A" d="M337.176,476.818h-35.979c-2.555,0-4.626-2.07-4.626-4.626v-22.831
				c0-0.617,0.5-1.116,1.117-1.116h39.489c0.617,0,1.118,0.499,1.118,1.116V475.7C338.293,476.318,337.793,476.818,337.176,476.818z
				"/>
		</g>
		<g id="XMLID_547_">
			<path id="XMLID_548_" fill="#FF0000" d="M448.502,476.818h-35.98c-0.617,0-1.117-0.5-1.117-1.118v-26.339
				c0-0.617,0.5-1.116,1.117-1.116h39.489c0.616,0,1.117,0.499,1.117,1.116v22.831C453.128,474.748,451.056,476.818,448.502,476.818
				z"/>
		</g>
	</g>
	<g id="XMLID_543_">
		<path id="XMLID_544_" fill="#53596A" d="M272.224,511.715c2.771,6.719,9.021,11.624,16.507,12.492v-12.492H272.224z"/>
	</g>
	<g id="XMLID_541_">
		<path id="XMLID_542_" fill="#53596A" d="M478.518,511.715H462.01v12.492C469.494,523.339,475.746,518.434,478.518,511.715z"/>
	</g>
	<g id="XMLID_536_">
		<g id="XMLID_537_">
			<path id="XMLID_538_" fill="#30323F" d="M288.731,511.715v12.492c0.778,0.091,1.567,0.151,2.371,0.151h168.537
				c0.805,0,1.593-0.061,2.371-0.151v-12.492H288.731z"/>
		</g>
	</g>
	<g id="XMLID_42_">
		<g id="XMLID_333_">
			<path id="XMLID_334_" fill="#27496A" d="M402.27,638.655h33.789c7.18,0,13-5.82,13-12.999V511.715H325.98h-15.576
				c6.028,25.684,17.276,52.601,36.897,77.884C364.405,611.636,383.964,627.4,402.27,638.655z"/>
		</g>
		<g id="XMLID_331_">
			<path id="XMLID_332_" fill="#325B77" d="M347.302,589.599c-19.622-25.283-30.87-52.2-36.897-77.884h-8.722v113.941
				c0,7.179,5.82,12.999,12.999,12.999h57.194h30.394C383.964,627.4,364.405,611.636,347.302,589.599z"/>
		</g>
		<g id="XMLID_309_">
			<g id="XMLID_328_">
				<path id="XMLID_329_" fill="#FFFFFF" d="M424.725,533.88h-8.176v-1.055h8.176V533.88z"/>
			</g>
			<g id="XMLID_325_">
				<path id="XMLID_326_" fill="#FFFFFF" d="M423.826,537.278v-2.486h0.898v6.052h-0.898v-2.498h-7.277v-1.067H423.826z"/>
			</g>
			<g id="XMLID_322_">
				<path id="XMLID_323_" fill="#FFFFFF" d="M416.815,550.045c-0.194-0.389-0.39-1.164-0.39-2.16c0-2.304,1.457-4.039,4.138-4.039
					c2.561,0,4.294,1.735,4.294,4.271c0,1.019-0.217,1.663-0.363,1.94l-0.859-0.254c0.191-0.4,0.338-0.971,0.338-1.65
					c0-1.918-1.225-3.19-3.371-3.19c-2.002,0-3.289,1.153-3.289,3.142c0,0.643,0.135,1.299,0.34,1.723L416.815,550.045z"/>
			</g>
			<g id="XMLID_318_">
				<path id="XMLID_319_" fill="#FFFFFF" d="M419.121,552.741l-2.572-0.849v-1.092l8.176,2.777v1.274l-8.176,2.789v-1.126
					l2.572-0.875V552.741z M419.944,555.423l2.354-0.801c0.534-0.182,1.02-0.303,1.492-0.425v-0.023
					c-0.485-0.121-0.982-0.254-1.48-0.413l-2.366-0.8V555.423z"/>
			</g>
			<g id="XMLID_314_">
				<path id="XMLID_315_" fill="#FFFFFF" d="M424.615,558.847c0.109,0.534,0.17,1.3,0.17,2.026c0,1.127-0.206,1.856-0.667,2.366
					c-0.364,0.413-0.921,0.643-1.554,0.643c-1.079,0-1.795-0.678-2.085-1.541h-0.038c-0.217,0.632-0.799,1.009-1.648,1.202
					c-1.141,0.267-1.929,0.46-2.244,0.631v-1.093c0.23-0.133,0.933-0.314,1.953-0.547c1.129-0.24,1.552-0.677,1.59-1.638v-0.992
					h-3.543v-1.058H424.615z M420.892,559.904v1.078c0,1.128,0.618,1.844,1.553,1.844c1.056,0,1.517-0.764,1.528-1.881
					c0-0.508-0.048-0.873-0.097-1.041H420.892z"/>
			</g>
			<g id="XMLID_310_">
				<path id="XMLID_311_" fill="#FFFFFF" d="M424.615,565.376c0.098,0.645,0.17,1.408,0.17,2.245c0,1.518-0.351,2.596-1.018,3.313
					c-0.668,0.729-1.615,1.152-2.938,1.152c-1.333,0-2.425-0.412-3.178-1.178c-0.765-0.762-1.176-2.025-1.176-3.614
					c0-0.752,0.035-1.383,0.096-1.918H424.615z M417.386,566.434c-0.05,0.267-0.062,0.654-0.062,1.066
					c0,2.257,1.264,3.482,3.471,3.482c1.928,0.01,3.154-1.081,3.154-3.313c0-0.546-0.049-0.958-0.109-1.236H417.386z"/>
			</g>
		</g>
		<g id="XMLID_44_">
			<path id="XMLID_306_" fill="#FFFFFF" d="M320.852,516.833c0.574-0.311,1.17-0.542,1.789-0.694
				c0.619-0.151,1.249-0.228,1.89-0.228c0.64,0,1.272,0.076,1.892,0.228c0.621,0.152,1.218,0.384,1.792,0.694
				c0.192,0.139,0.342,0.315,0.454,0.528c0.11,0.215,0.165,0.439,0.165,0.676s-0.054,0.461-0.162,0.672
				c-0.109,0.213-0.259,0.387-0.451,0.527c-0.578,0.311-1.178,0.543-1.803,0.699c-0.624,0.156-1.256,0.234-1.897,0.234
				c-0.63,0-1.258-0.08-1.882-0.24c-0.624-0.158-1.221-0.393-1.792-0.699c-0.192-0.139-0.341-0.314-0.45-0.525
				c-0.109-0.213-0.164-0.438-0.164-0.674c0-0.235,0.056-0.46,0.166-0.673C320.509,517.147,320.66,516.972,320.852,516.833z
				 M327.771,517.48c-0.51-0.27-1.038-0.471-1.582-0.602c-0.544-0.132-1.095-0.197-1.653-0.197s-1.11,0.066-1.656,0.2
				c-0.546,0.133-1.074,0.334-1.584,0.604c-0.086,0.063-0.153,0.144-0.202,0.241c-0.05,0.098-0.073,0.201-0.073,0.31
				s0.023,0.212,0.073,0.311c0.048,0.096,0.115,0.178,0.202,0.242c0.511,0.266,1.038,0.465,1.582,0.598
				c0.543,0.133,1.095,0.199,1.654,0.199c0.559,0,1.11-0.066,1.656-0.199c0.545-0.133,1.073-0.334,1.583-0.605
				c0.086-0.063,0.154-0.143,0.203-0.242c0.048-0.096,0.073-0.199,0.073-0.309s-0.024-0.211-0.073-0.309
				C327.924,517.624,327.856,517.544,327.771,517.48z"/>
			<path id="XMLID_304_" fill="#FFFFFF" d="M326.302,522.347c0-0.109,0.039-0.201,0.115-0.279c0.077-0.076,0.17-0.114,0.279-0.114
				c0.12,0,0.22,0.044,0.299,0.135l1.72,1.721c0.076,0.075,0.113,0.167,0.113,0.275c0,0.102-0.037,0.194-0.113,0.276
				c-0.082,0.074-0.176,0.112-0.281,0.112h-7.808c-0.108,0-0.202-0.038-0.278-0.115c-0.077-0.077-0.116-0.171-0.116-0.278
				c0-0.109,0.039-0.201,0.116-0.278c0.076-0.077,0.169-0.116,0.278-0.116h6.858l-1.063-1.057
				C326.341,522.55,326.302,522.456,326.302,522.347z"/>
			<path id="XMLID_302_" fill="#FFFFFF" d="M328.057,528.403c0-0.154-0.024-0.301-0.073-0.443c-0.049-0.143-0.117-0.272-0.203-0.392
				c-0.086-0.118-0.189-0.221-0.309-0.309c-0.121-0.089-0.253-0.155-0.4-0.2c-0.086-0.026-0.157-0.074-0.214-0.143
				c-0.056-0.07-0.083-0.152-0.083-0.244c0-0.109,0.038-0.202,0.115-0.279c0.076-0.078,0.169-0.116,0.279-0.116
				c0.052,0,0.103,0.01,0.151,0.028c0.226,0.072,0.431,0.174,0.617,0.31c0.186,0.135,0.345,0.293,0.478,0.473
				c0.134,0.181,0.236,0.379,0.31,0.597c0.073,0.217,0.109,0.443,0.109,0.68v0.057c0,0.19-0.024,0.379-0.076,0.562
				c-0.05,0.18-0.123,0.352-0.216,0.51c-0.094,0.16-0.207,0.307-0.341,0.439c-0.133,0.133-0.283,0.248-0.453,0.34
				c-0.322,0.18-0.666,0.271-1.029,0.271c-0.192,0-0.38-0.025-0.566-0.074c-0.185-0.049-0.363-0.125-0.532-0.23l-4.606-2.864v2.763
				c0,0.109-0.04,0.201-0.116,0.277c-0.077,0.078-0.169,0.117-0.278,0.117c-0.108,0-0.201-0.039-0.278-0.117
				c-0.078-0.076-0.115-0.168-0.115-0.277v-3.471c0-0.108,0.038-0.201,0.115-0.278c0.077-0.077,0.169-0.115,0.278-0.115
				c0.098,0,0.182,0.029,0.253,0.09c0.641,0.398,1.206,0.748,1.69,1.052c0.486,0.304,0.909,0.567,1.269,0.79
				c0.359,0.223,0.664,0.412,0.911,0.565c0.248,0.154,0.452,0.279,0.613,0.381c0.162,0.1,0.285,0.176,0.371,0.23
				c0.087,0.053,0.15,0.092,0.192,0.117c0.041,0.023,0.068,0.041,0.084,0.049c0.108,0.066,0.223,0.119,0.343,0.15
				c0.12,0.035,0.242,0.051,0.365,0.051c0.233,0,0.451-0.055,0.653-0.168c0.214-0.119,0.382-0.285,0.507-0.492
				C327.996,528.879,328.057,528.651,328.057,528.403z"/>
			<path id="XMLID_300_" fill="#FFFFFF" d="M328.046,532.709c0-0.109,0.038-0.203,0.116-0.279c0.077-0.078,0.169-0.115,0.278-0.115
				c0.108,0,0.202,0.037,0.278,0.115c0.076,0.076,0.115,0.17,0.115,0.279v1.737c0,0.292-0.056,0.569-0.168,0.826
				c-0.112,0.259-0.265,0.485-0.458,0.679c-0.192,0.193-0.418,0.346-0.677,0.458s-0.534,0.168-0.828,0.168
				c-0.36,0-0.691-0.081-0.992-0.243c-0.303-0.164-0.55-0.38-0.746-0.65c-0.191,0.266-0.433,0.481-0.726,0.646
				c-0.292,0.165-0.615,0.247-0.967,0.247h-0.906c-0.292,0-0.567-0.056-0.827-0.168c-0.259-0.112-0.485-0.265-0.678-0.458
				s-0.346-0.42-0.458-0.679c-0.113-0.257-0.169-0.534-0.169-0.826v-1.737c0-0.109,0.039-0.203,0.116-0.279
				c0.076-0.078,0.169-0.115,0.278-0.115c0.109,0,0.202,0.037,0.279,0.115c0.076,0.076,0.115,0.17,0.115,0.279v1.737
				c0,0.184,0.035,0.357,0.106,0.522c0.071,0.166,0.167,0.309,0.288,0.428c0.119,0.12,0.262,0.215,0.425,0.287
				c0.163,0.071,0.339,0.107,0.525,0.107h0.866c0.18,0,0.349-0.033,0.506-0.1c0.158-0.065,0.297-0.154,0.417-0.267
				c0.12-0.113,0.216-0.245,0.29-0.4c0.073-0.152,0.115-0.317,0.126-0.494l0.005-0.084v-0.866c0-0.108,0.038-0.202,0.116-0.278
				c0.077-0.077,0.169-0.115,0.279-0.115c0.109,0,0.202,0.038,0.278,0.115c0.077,0.076,0.115,0.17,0.115,0.278v0.905
				c0,0.008,0,0.016-0.002,0.022c-0.003,0.008-0.003,0.016-0.003,0.022c0.011,0.177,0.055,0.342,0.129,0.494
				c0.075,0.155,0.173,0.287,0.292,0.4c0.12,0.112,0.259,0.201,0.417,0.267c0.158,0.066,0.326,0.1,0.506,0.1
				c0.185,0,0.358-0.036,0.523-0.107c0.165-0.072,0.308-0.167,0.427-0.287c0.121-0.119,0.216-0.262,0.287-0.428
				c0.071-0.165,0.107-0.339,0.107-0.522V532.709z"/>
			<path id="XMLID_230_" fill="#FFFFFF" d="M320.239,548.7c0-0.109,0.038-0.201,0.114-0.279c0.078-0.076,0.17-0.115,0.279-0.115
				h1.345v-2.648c0-0.108,0.039-0.202,0.115-0.279c0.077-0.076,0.17-0.115,0.279-0.115c0.045,0,0.095,0.009,0.152,0.028l6.03,1.728
				c0.086,0.026,0.155,0.075,0.208,0.146c0.053,0.071,0.079,0.15,0.079,0.236c0,0.036-0.006,0.073-0.016,0.106
				c-0.026,0.086-0.076,0.155-0.147,0.208c-0.07,0.052-0.149,0.079-0.236,0.079c-0.038,0-0.074-0.006-0.107-0.018l-5.568-1.597
				v2.126h1.339c0.109,0,0.202,0.039,0.278,0.115c0.078,0.078,0.116,0.17,0.116,0.279c0,0.108-0.038,0.201-0.116,0.277
				c-0.076,0.076-0.169,0.116-0.278,0.116h-1.339v0.905c0,0.108-0.038,0.202-0.115,0.278c-0.077,0.078-0.17,0.115-0.278,0.115
				c-0.109,0-0.202-0.037-0.279-0.115c-0.077-0.076-0.115-0.17-0.115-0.278v-0.905h-1.345c-0.108,0-0.201-0.04-0.279-0.116
				C320.277,548.901,320.239,548.809,320.239,548.7z"/>
			<path id="XMLID_228_" fill="#FFFFFF" d="M328.046,552.97h-2.684v1.384c-0.007,0.288-0.067,0.561-0.179,0.814
				c-0.113,0.256-0.266,0.479-0.459,0.667c-0.192,0.19-0.418,0.34-0.675,0.447c-0.256,0.109-0.529,0.163-0.818,0.163h-0.866
				c-0.292,0-0.567-0.057-0.827-0.169c-0.259-0.112-0.485-0.265-0.678-0.458s-0.346-0.42-0.458-0.679
				c-0.113-0.259-0.169-0.533-0.169-0.825v-1.74c0-0.107,0.039-0.201,0.116-0.277c0.076-0.076,0.169-0.115,0.278-0.115
				c0.109,0,0.202,0.039,0.279,0.115c0.076,0.076,0.115,0.17,0.115,0.277v1.74c0,0.183,0.033,0.357,0.101,0.52
				c0.068,0.163,0.16,0.305,0.278,0.427c0.118,0.123,0.258,0.219,0.418,0.291c0.159,0.071,0.33,0.106,0.514,0.106h0.899
				c0.184,0,0.357-0.035,0.521-0.104c0.163-0.07,0.306-0.164,0.428-0.281c0.122-0.119,0.219-0.258,0.29-0.417
				s0.106-0.329,0.106-0.509v-1.773c0-0.107,0.038-0.201,0.116-0.277c0.077-0.076,0.169-0.115,0.279-0.115h3.471
				c0.108,0,0.202,0.039,0.278,0.115c0.076,0.076,0.115,0.17,0.115,0.277v3.039c0,0.109-0.039,0.201-0.115,0.277
				c-0.077,0.077-0.17,0.116-0.278,0.116c-0.109,0-0.201-0.039-0.278-0.116c-0.078-0.076-0.116-0.168-0.116-0.277V552.97z"/>
			<path id="XMLID_222_" fill="#FFFFFF" d="M325.014,558.229c0.428,0.03,0.838,0.119,1.229,0.268
				c0.391,0.147,0.753,0.346,1.083,0.592c0.33,0.248,0.622,0.54,0.874,0.876c0.254,0.335,0.453,0.706,0.6,1.11l0.011,0.023
				c0.019,0.049,0.028,0.098,0.028,0.146c0,0.107-0.038,0.201-0.115,0.277c-0.077,0.076-0.169,0.115-0.278,0.115
				c-0.086,0-0.167-0.025-0.241-0.078c-0.076-0.053-0.122-0.123-0.141-0.209c-0.108-0.299-0.254-0.576-0.433-0.829
				c-0.181-0.253-0.388-0.479-0.622-0.675c-0.235-0.197-0.49-0.363-0.769-0.494c-0.277-0.135-0.57-0.228-0.877-0.285v1.288
				c0.007,0.038,0.012,0.074,0.012,0.109c0,0.036,0,0.072,0,0.11c0,0.256-0.049,0.5-0.145,0.736s-0.234,0.447-0.418,0.631
				c-0.184,0.184-0.393,0.324-0.628,0.42c-0.233,0.094-0.479,0.143-0.733,0.143c-0.038,0-0.074,0-0.109,0
				c-0.036,0-0.073-0.006-0.11-0.012h-0.899c-0.288-0.004-0.561-0.063-0.816-0.176c-0.254-0.115-0.477-0.268-0.667-0.461
				c-0.189-0.189-0.339-0.414-0.45-0.67c-0.11-0.258-0.166-0.533-0.166-0.825c0-0.293,0.057-0.567,0.169-0.827
				c0.112-0.259,0.265-0.484,0.458-0.677c0.193-0.194,0.419-0.347,0.678-0.46c0.259-0.111,0.535-0.168,0.827-0.168H325.014z
				 M322.364,559.016c-0.187,0-0.362,0.035-0.525,0.108c-0.163,0.069-0.306,0.165-0.425,0.286c-0.121,0.119-0.216,0.261-0.288,0.425
				c-0.071,0.162-0.106,0.339-0.106,0.525c0,0.184,0.033,0.356,0.101,0.521c0.068,0.162,0.16,0.307,0.278,0.428
				s0.258,0.217,0.418,0.289c0.159,0.07,0.33,0.105,0.514,0.105h0.967c0.026,0.006,0.051,0.008,0.076,0.01s0.051,0.004,0.076,0.004
				c0.15,0,0.294-0.029,0.433-0.086c0.139-0.055,0.263-0.139,0.372-0.246c0.107-0.109,0.19-0.232,0.246-0.373
				c0.057-0.137,0.085-0.281,0.085-0.433c0-0.026-0.001-0.051-0.003-0.075c-0.002-0.025-0.004-0.05-0.009-0.076v-1.412H322.364z"/>
			<path id="XMLID_232_" fill="#FFFFFF" d="M327.186,564.681c0-0.108,0.038-0.202,0.116-0.278c0.076-0.077,0.169-0.115,0.278-0.115
				h0.866c0.109,0,0.202,0.038,0.278,0.115c0.077,0.076,0.115,0.17,0.115,0.278v3.471c0,0.108-0.038,0.201-0.115,0.278
				c-0.077,0.077-0.169,0.115-0.278,0.115c-0.022,0-0.045-0.002-0.068-0.007c-0.022-0.002-0.045-0.008-0.067-0.016l-7.763-1.728
				c-0.108-0.021-0.193-0.079-0.25-0.169s-0.076-0.188-0.054-0.297c0.022-0.109,0.079-0.193,0.168-0.25
				c0.091-0.059,0.189-0.076,0.299-0.055l7.341,1.632v-2.581h-0.473c-0.108,0-0.202-0.039-0.278-0.116
				C327.224,564.882,327.186,564.789,327.186,564.681z"/>
			<path id="XMLID_234_" fill="#FFFFFF" d="M322.364,581.493c-0.292,0-0.567-0.057-0.827-0.168c-0.259-0.113-0.485-0.267-0.678-0.46
				c-0.193-0.192-0.346-0.418-0.458-0.677c-0.113-0.258-0.169-0.535-0.169-0.827s0.057-0.567,0.169-0.826
				c0.112-0.26,0.265-0.484,0.458-0.678s0.419-0.346,0.678-0.458c0.259-0.113,0.535-0.169,0.827-0.169h0.866
				c0.361,0,0.691,0.081,0.994,0.244c0.301,0.163,0.55,0.381,0.745,0.655c0.191-0.274,0.437-0.492,0.74-0.655
				c0.301-0.163,0.634-0.244,0.999-0.244c0.292,0,0.567,0.056,0.821,0.169c0.255,0.112,0.478,0.266,0.669,0.46
				c0.191,0.195,0.343,0.422,0.455,0.68c0.113,0.256,0.173,0.53,0.18,0.822c0,0.292-0.056,0.569-0.168,0.827
				c-0.112,0.259-0.265,0.484-0.458,0.677c-0.192,0.193-0.418,0.347-0.677,0.46c-0.259,0.111-0.534,0.168-0.828,0.168
				c-0.36,0-0.691-0.081-0.992-0.245c-0.303-0.162-0.55-0.379-0.746-0.648c-0.191,0.266-0.434,0.481-0.728,0.646
				c-0.295,0.165-0.618,0.247-0.971,0.247H322.364z M325.362,579.361c0,0.016,0,0.029-0.002,0.043
				c-0.003,0.013-0.003,0.026-0.003,0.042c0.011,0.177,0.055,0.342,0.129,0.494c0.075,0.154,0.173,0.288,0.292,0.399
				c0.12,0.112,0.259,0.202,0.417,0.268c0.158,0.065,0.326,0.098,0.506,0.098c0.185,0,0.358-0.035,0.523-0.105
				c0.165-0.071,0.309-0.167,0.43-0.287c0.123-0.12,0.219-0.264,0.29-0.427c0.072-0.166,0.107-0.341,0.107-0.524
				c0-0.187-0.035-0.362-0.107-0.526c-0.071-0.161-0.167-0.304-0.287-0.424c-0.12-0.119-0.262-0.215-0.428-0.286
				c-0.165-0.072-0.339-0.108-0.523-0.108c-0.188,0-0.364,0.036-0.527,0.108c-0.163,0.071-0.304,0.167-0.424,0.286
				c-0.12,0.12-0.215,0.263-0.287,0.424C325.399,578.999,325.362,579.175,325.362,579.361z M323.23,580.705
				c0.18,0,0.349-0.032,0.506-0.098s0.297-0.155,0.417-0.268c0.12-0.111,0.216-0.245,0.29-0.399
				c0.073-0.152,0.115-0.317,0.126-0.494l0.005-0.085c0-0.187-0.035-0.362-0.106-0.526c-0.071-0.161-0.167-0.304-0.288-0.424
				c-0.12-0.119-0.262-0.215-0.426-0.286c-0.165-0.072-0.34-0.108-0.524-0.108h-0.866c-0.187,0-0.362,0.036-0.525,0.108
				c-0.163,0.071-0.306,0.167-0.425,0.286c-0.121,0.12-0.216,0.263-0.288,0.424c-0.071,0.164-0.106,0.34-0.106,0.526
				c0,0.184,0.035,0.358,0.106,0.524c0.071,0.163,0.167,0.307,0.288,0.427c0.119,0.12,0.262,0.216,0.425,0.287
				c0.163,0.07,0.339,0.105,0.525,0.105H323.23z"/>
			<path id="XMLID_99_" fill="#FFFFFF" d="M320.244,584.582c0-0.108,0.039-0.201,0.116-0.279c0.076-0.076,0.169-0.115,0.278-0.115
				c0.079,0,0.15,0.021,0.214,0.061c0.063,0.043,0.112,0.098,0.146,0.166c0.104,0.303,0.246,0.583,0.424,0.84
				c0.179,0.257,0.385,0.486,0.619,0.687c0.235,0.201,0.493,0.367,0.773,0.5c0.281,0.134,0.578,0.229,0.889,0.285v-1.322
				c0.003-0.288,0.064-0.56,0.177-0.813c0.114-0.255,0.269-0.476,0.462-0.665c0.192-0.188,0.417-0.338,0.671-0.445
				c0.255-0.109,0.529-0.164,0.821-0.164h0.867c0.293,0,0.569,0.057,0.828,0.168c0.259,0.113,0.485,0.266,0.677,0.459
				c0.193,0.193,0.346,0.418,0.458,0.678c0.113,0.26,0.168,0.535,0.168,0.827s-0.055,0.568-0.165,0.827
				c-0.111,0.259-0.262,0.483-0.456,0.675c-0.193,0.191-0.419,0.343-0.678,0.455c-0.258,0.113-0.536,0.169-0.833,0.169h-2.423
				c-0.447-0.003-0.876-0.073-1.289-0.21c-0.413-0.138-0.792-0.328-1.139-0.57c-0.347-0.246-0.655-0.539-0.922-0.882
				c-0.269-0.343-0.479-0.722-0.633-1.138C320.261,584.717,320.244,584.653,320.244,584.582z M324.49,586.794h2.211
				c0.185,0,0.358-0.036,0.523-0.108c0.165-0.071,0.308-0.166,0.427-0.287c0.121-0.119,0.216-0.262,0.287-0.427
				s0.107-0.34,0.107-0.523s-0.035-0.357-0.104-0.52c-0.068-0.163-0.163-0.307-0.28-0.428c-0.119-0.124-0.256-0.22-0.417-0.29
				c-0.16-0.07-0.329-0.107-0.51-0.107h-0.9c-0.187,0-0.362,0.037-0.525,0.107c-0.163,0.07-0.305,0.166-0.425,0.287
				c-0.12,0.12-0.216,0.262-0.287,0.425c-0.072,0.162-0.107,0.338-0.107,0.525V586.794z"/>
			<path id="XMLID_62_" fill="#FFFFFF" d="M320.852,590.292c0.574-0.312,1.17-0.544,1.789-0.696c0.619-0.15,1.249-0.228,1.89-0.228
				c0.64,0,1.272,0.077,1.892,0.228c0.621,0.152,1.218,0.385,1.792,0.696c0.192,0.137,0.342,0.314,0.454,0.527
				c0.11,0.214,0.165,0.438,0.165,0.676c0,0.236-0.054,0.46-0.162,0.672c-0.109,0.214-0.259,0.388-0.451,0.526
				c-0.578,0.313-1.178,0.545-1.803,0.701c-0.624,0.154-1.256,0.232-1.897,0.232c-0.63,0-1.258-0.08-1.882-0.24
				c-0.624-0.158-1.221-0.393-1.792-0.699c-0.192-0.139-0.341-0.314-0.45-0.526c-0.109-0.211-0.164-0.436-0.164-0.672
				s0.056-0.461,0.166-0.672C320.509,590.604,320.66,590.429,320.852,590.292z M327.771,590.938c-0.51-0.27-1.038-0.47-1.582-0.601
				s-1.095-0.197-1.653-0.197s-1.11,0.066-1.656,0.199c-0.546,0.133-1.074,0.334-1.584,0.604c-0.086,0.063-0.153,0.145-0.202,0.241
				c-0.05,0.098-0.073,0.201-0.073,0.311s0.023,0.211,0.073,0.309c0.048,0.098,0.115,0.178,0.202,0.242
				c0.511,0.267,1.038,0.466,1.582,0.601c0.543,0.133,1.095,0.199,1.654,0.199c0.559,0,1.11-0.066,1.656-0.199
				c0.545-0.135,1.073-0.337,1.583-0.606c0.086-0.064,0.154-0.145,0.203-0.241c0.048-0.099,0.073-0.201,0.073-0.31
				c0-0.109-0.024-0.212-0.073-0.309C327.924,591.083,327.856,591.002,327.771,590.938z"/>
			<path id="XMLID_58_" fill="#FFFFFF" d="M320.852,596.339c0.574-0.313,1.17-0.543,1.789-0.694c0.619-0.153,1.249-0.229,1.89-0.229
				c0.64,0,1.272,0.075,1.892,0.229c0.621,0.151,1.218,0.382,1.792,0.694c0.192,0.139,0.342,0.314,0.454,0.527
				c0.11,0.215,0.165,0.44,0.165,0.676s-0.054,0.46-0.162,0.672c-0.109,0.212-0.259,0.388-0.451,0.526
				c-0.578,0.312-1.178,0.544-1.803,0.7c-0.624,0.155-1.256,0.233-1.897,0.233c-0.63,0-1.258-0.08-1.882-0.238
				c-0.624-0.159-1.221-0.394-1.792-0.701c-0.192-0.139-0.341-0.313-0.45-0.525c-0.109-0.213-0.164-0.438-0.164-0.673
				c0-0.236,0.056-0.46,0.166-0.673C320.509,596.652,320.66,596.478,320.852,596.339z M327.771,596.985
				c-0.51-0.271-1.038-0.471-1.582-0.603c-0.544-0.131-1.095-0.196-1.653-0.196s-1.11,0.067-1.656,0.199
				c-0.546,0.134-1.074,0.335-1.584,0.604c-0.086,0.064-0.153,0.145-0.202,0.243c-0.05,0.097-0.073,0.2-0.073,0.309
				s0.023,0.212,0.073,0.31c0.048,0.098,0.115,0.179,0.202,0.241c0.511,0.267,1.038,0.467,1.582,0.599
				c0.543,0.134,1.095,0.2,1.654,0.2c0.559,0,1.11-0.066,1.656-0.2c0.545-0.132,1.073-0.333,1.583-0.604
				c0.086-0.063,0.154-0.145,0.203-0.242c0.048-0.097,0.073-0.199,0.073-0.309c0-0.108-0.024-0.212-0.073-0.31
				C327.924,597.129,327.856,597.049,327.771,596.985z"/>
		</g>
	</g>
	<path fill="#18A689" d="M381.93,119.389c3.163,0.773,6.424,1.269,9.469,2.367c16.435,5.922,26.308,23.037,23.386,40.269
		c-2.563,15.123-14.193,27.203-28.89,30.009c-19.552,3.734-38.045-8.098-42.891-27.44c-5.219-20.836,9.319-42.008,30.8-44.861
		c0.532-0.071,1.052-0.228,1.576-0.344C377.565,119.389,379.748,119.389,381.93,119.389z M362.381,148.918
		c-2.629,2.614-5.042,5.01-7.128,7.083c5.964,5.965,12.068,12.069,18.017,18.019c9.598-9.598,19.378-19.377,29.036-29.033
		c-2.313-2.31-4.722-4.715-7.294-7.286c-7.227,7.231-14.567,14.577-21.961,21.975C369.404,155.999,365.804,152.368,362.381,148.918z
		"/>
</g>
<g id="right">
	<path id="XMLID_344_" fill="#F6B9AD" d="M717.339,518.938c-3.122-6.84-7.86-19.254-12.941-33.209
		c-20.888-33.989-41.583-65.339-42.775-66.775c-10.026-12.082-21.186-20.043-35.892-16.35c-3.751,4.214-7.965,9.354-9.826,9.977
		c-3.002,1.006-5.293-4.599-6.59-6.796c-0.527-0.896-2.375-2.835-4.381-4.819c-13.295-8.871-26.429-6.468-37.95,3.295
		c-1.246,5.078-2.261,10.396-2.829,11.278c-1.035,1.597-5.843,2.736-8.339,1.59c-2.497-1.146-8.952-10.608-8.954-10.611
		c-0.92-0.935-1.871-1.996-2.879-3.185c-17.123-20.188-33.705-22.438-52.772-7.089c-1.493,3.392-2.323,6.438-1.438,7.919
		c2.64,4.41-1.773,12.94-5.398,13.568c-3.621,0.628-7.758-6.854-7.758-6.854l-18.209-26.425
		c-22.832-28.019-46.104-55.684-69.031-83.627c-3.839-4.682-6.966-9.248-12.824-12.882c-6.349-3.938-16.599-4.642-23.301,1.295
		c-5.987,5.306-8.097,12.046-6.609,20.393c2.435,13.669,9.978,26.026,17.833,37.182c11.815,16.781,24.17,33.204,35.457,50.331
		c26.652,40.438,59.184,77.506,73.04,125.377c1.552,5.354,6.151,10.535,1.84,17.33c-13.845-9.729-25.813-20.965-36.12-34.094
		c-7.673-9.771-15.8-19.199-26.299-26.143c-14.596-9.651-31.14-13.307-43.427-1.1c-2.358,2.345-3.442,5.135-3.386,8.068
		c7.611-4.821,17.711-2.671,22.681,4.887l2.133,3.243c3.903,5.936,2.256,13.911-3.679,17.814l-0.71,0.466
		c3.496,4.464,6.102,9.062,8.505,14.961c5.17,12.688,13.599,23.25,22.739,33.258c15.652,17.144,31.847,33.82,46.914,51.461
		c1.207,1.412,2.441,2.779,3.699,4.108c18.047,11.584,43.154,26.523,52.494,26.431c15.238-0.149,59.473,5.191,80.782,18.244
		c2.362,1.447,4.618,3.619,6.767,6.332c15.668-13.001,32.953-20.643,47.168-20.58c25.428,0.111,56.363-24.527,69.257-42.053
		C737.223,587.628,727.587,541.387,717.339,518.938z"/>
	<g id="XMLID_342_">
		<path id="XMLID_343_" fill="#DBA19A" d="M776.861,631.168c-7.022-24.313-42.832-95.625-56.234-118.468
			c-5.187-8.84-10.715-17.998-16.229-26.972c5.081,13.955,9.819,26.369,12.941,33.209c10.248,22.449,19.884,68.69,6.988,86.217
			c-12.894,17.525-43.829,42.164-69.257,42.053c-18.854-0.082-43.107,13.381-61.822,34.932c1.289,1.072,2.57,2.159,3.843,3.255
			l178.265,4.571L776.861,631.168z"/>
	</g>
	<g id="XMLID_338_">
		<path id="XMLID_341_" fill="#CC8176" d="M484.373,417.73c3.625-0.628,8.038-9.158,5.398-13.568
			c-0.885-1.48-0.055-4.527,1.438-7.919c-1.347,1.083-2.704,2.248-4.077,3.507c-7.682,7.05-11.123,6.471-17.439-1.372
			c-3.746-4.655-7.512-9.295-11.287-13.927l18.209,26.425C476.615,410.876,480.752,418.358,484.373,417.73z"/>
		<path id="XMLID_340_" fill="#CC8176" d="M555.815,417.128c2.496,1.146,7.304,0.007,8.339-1.59c0.568-0.882,1.583-6.2,2.829-11.278
			c-0.533,0.451-1.064,0.912-1.591,1.396c-8.134,7.468-12.619,6.876-18.531,0.861C546.863,406.52,553.318,415.981,555.815,417.128z"
			/>
		<path id="XMLID_339_" fill="#CC8176" d="M609.314,405.784c1.297,2.197,3.588,7.802,6.59,6.796
			c1.861-0.623,6.075-5.763,9.826-9.977c-2.479,0.621-5.054,1.564-7.743,2.885c-4.378,2.147-7.099,0.016-10.067-2.348
			c-0.996-0.789-1.992-1.513-2.986-2.176C606.939,402.949,608.787,404.889,609.314,405.784z"/>
	</g>
	<path id="XMLID_337_" fill="#DBA19A" d="M601.136,661.455c-21.31-13.053-65.544-18.394-80.782-18.244
		c-9.34,0.093-34.447-14.847-52.494-26.431c7.723,8.159,16.367,14.748,25.797,20.101c7.533,4.277,15.563,7.77,24.018,10.652
		c10.723,3.659,21.469,7.337,32.4,10.275c16.871,4.535,30.474,13.777,43.174,24.33c4.604-5.302,9.543-10.11,14.654-14.352
		C605.754,665.074,603.498,662.902,601.136,661.455z"/>
	<path id="XMLID_336_" fill="#F8E3D8" d="M390.392,494.712l-2.133-3.243c-4.97-7.558-15.07-9.708-22.681-4.887
		c0.08,4.096,2.396,8.467,6.622,12.277c5.941,5.354,10.314,9.678,13.803,14.133l0.71-0.466
		C392.647,508.623,394.295,500.647,390.392,494.712z"/>
	<path id="XMLID_335_" fill="#F8E3D8" d="M387.332,315.172l-18.874,14.698c-1.23,0.958-3.005,0.737-3.962-0.493l-8.458-10.862
		c-5.017-6.442-3.861-15.731,2.581-20.748h0.001c6.441-5.016,15.729-3.861,20.746,2.581l8.458,10.862
		C388.783,312.44,388.563,314.213,387.332,315.172z"/>
	
		<rect x="572.748" y="625.591" transform="matrix(0.8186 -0.5744 0.5744 0.8186 -247.458 513.5532)" fill="#FFFFFF" width="232.995" height="45.842"/>
	<polygon fill="#FF8976" points="798.82,585.492 588.469,733.097 603.943,755.15 798.82,755.15 	"/>
</g>
</svg>
