<svg enable-background="new 0 -31 293.583 76" height="76" viewBox="0 -31 293.583 76" width="293.583" xmlns="http://www.w3.org/2000/svg"><path d="m79.788 3.608c-.424 0-.842.021-1.258.048-2.993-12.296-14.072-21.423-27.29-21.423-13.24 0-24.333 9.155-27.307 21.476-.635-.065-1.274-.102-1.929-.102-9.954 0-18.021 8.068-18.021 18.019 0 9.958 8.067 18.023 18.021 18.023h57.784c9.955 0 18.02-8.065 18.02-18.023 0-9.95-8.066-18.018-18.02-18.018z" fill="#fff"/><path d="m79.788 40.812h-57.785c-10.576 0-19.181-8.604-19.181-19.182 0-10.576 8.605-19.181 19.181-19.181.355 0 .704.012 1.054.029 3.502-12.65 14.954-21.399 28.184-21.399 13.211 0 24.662 8.741 28.177 21.378.122-.006.245-.007.37-.007 10.576 0 19.181 8.605 19.181 19.181-.003 10.577-8.605 19.181-19.181 19.181zm-57.785-36.042c-9.296 0-16.861 7.562-16.861 16.857 0 9.3 7.565 16.867 16.861 16.867h57.785c9.297 0 16.858-7.567 16.858-16.867 0-9.295-7.563-16.857-16.858-16.857-.397 0-.79.018-1.172.042l-.98.073-.231-.955c-2.947-12.09-13.705-20.533-26.165-20.533-12.489 0-23.252 8.467-26.18 20.585l-.238.993-1.012-.108c-.595-.064-1.196-.097-1.807-.097z" fill="#fff"/><path d="m46.135 22.765c.193 1.521.323 3.065.602 4.575.219 1.166-.172 1.962-1.165 2.481-1.008.527-2.076.438-2.669-.521-.772-1.259-1.52-2.622-1.856-4.031-.938-3.956-1.147-7.972-.447-12.017.329-1.89-.146-3.678-.977-5.404-1.216-2.52-2.069-5.094-1.454-7.997 1.079-5.097 5.987-7.739 10.725-5.452 2.023.975 3.652.915 5.632-.048 2.728-1.326 5.517-1.012 7.948.896 2.357 1.841 3.123 4.475 2.808 7.293-.199 1.762-.83 3.541-1.582 5.162-.982 2.121-1.095 4.235-.882 6.5.392 4.172.389 8.347-.952 12.396-.266.808-.647 1.612-1.129 2.307-.858 1.251-1.846 1.499-3.053.911-1.212-.596-1.166-1.624-1.104-2.787.145-2.609.464-5.271.122-7.826-.523-3.887-4.14-5.738-7.366-4.099-2.057 1.047-2.675 2.989-2.984 5.059-.124.847-.019 1.717-.019 2.586-.067.003-.133.009-.198.016z" fill="#fff"/><path d="m99.953 19.572c-.024-.232-.072-.453-.103-.681-.059-.44-.113-.886-.2-1.314-.059-.282-.144-.557-.212-.832-.09-.365-.17-.737-.281-1.096-.092-.293-.21-.575-.313-.863-.118-.329-.226-.665-.362-.986-.125-.298-.274-.58-.413-.87-.142-.298-.272-.602-.431-.89-.16-.299-.343-.58-.52-.868-.16-.265-.309-.538-.481-.794-.194-.289-.408-.56-.615-.834-.179-.24-.347-.489-.536-.717-.226-.277-.472-.534-.71-.798-.193-.213-.377-.432-.578-.633-.257-.26-.531-.501-.801-.746-.206-.188-.404-.382-.618-.562-.284-.238-.585-.454-.881-.676-.218-.165-.433-.336-.657-.494-.309-.21-.63-.398-.95-.595-.233-.142-.461-.293-.699-.426-.327-.182-.667-.34-1.005-.502-.25-.122-.492-.248-.745-.361-.342-.149-.697-.273-1.048-.404-.265-.097-.523-.204-.792-.291-.352-.113-.716-.204-1.077-.3-.283-.073-.561-.156-.845-.216-.361-.079-.729-.131-1.096-.192-.299-.045-.594-.1-.897-.135-.364-.04-.732-.058-1.102-.081-.252-.014-.498-.049-.75-.054-3.897-12.671-15.569-21.374-28.995-21.374-6.948 0-13.486 2.288-18.906 6.609-4.762 3.799-8.293 8.991-10.085 14.77-.082-.003-.165-.006-.246-.006-11.176 0-20.27 9.093-20.27 20.271s9.094 20.27 20.27 20.27h57.785c11.178 0 20.271-9.092 20.271-20.27-.001-.696-.036-1.381-.106-2.059zm-20.165 17.832h-57.785c-8.695 0-15.772-7.075-15.772-15.777 0-8.694 7.077-15.766 15.772-15.766.556 0 1.124.026 1.693.091l1.963.206.461-1.917c2.811-11.634 13.14-19.757 25.12-19.757 11.116 0 20.811 7.012 24.391 17.318-2.558.541-4.964 1.562-7.109 3.001.097-.388.19-.776.254-1.169.688-4.302-.398-8.183-3.9-11.012-3.458-2.797-7.423-3.104-11.486-1.489-1.211.482-2.143.467-3.331-.024-6.819-2.825-13.814.918-15.266 8.12-.705 3.484.166 6.716 1.561 9.916.533 1.215.662 2.675.697 4.031.046 1.629-.206 3.257-.33 4.888.118 1.501.171 2.995.36 4.483.393 3.073.91 6.125 2.901 8.671 1.832 2.338 4.535 2.956 7.225 1.694 2.424-1.131 3.375-3.5 2.986-6.377-.295-2.173-.23-4.411-.163-6.617.029-.968.544-1.93 1.749-1.909 1.203.028 1.674 1.025 1.706 1.978.067 2.102.126 4.248-.173 6.328-.462 3.183.617 5.672 3.287 6.738 2.886 1.149 5.608.279 7.347-2.439.557-.872 1.042-1.83 1.35-2.815 1.449-4.662 1.683-9.446 1.079-14.262-.008-.062-.005-.118-.011-.178 2.899-4.693 7.916-7.493 13.427-7.493 8.697 0 15.772 7.072 15.772 15.768-.003 8.695-7.079 15.77-15.775 15.77zm-18.124-23.094c.313 3.337.497 7.713-.896 11.922-.244.739-.584 1.433-.986 2.017-.488.711-.827.711-.937.711-.178 0-.396-.065-.647-.188-.441-.215-.526-.381-.457-1.678l.104-1.618c.145-2.102.297-4.285.006-6.426-.451-3.356-2.958-5.705-6.1-5.705-1.005 0-1.995.245-2.94.724-2.616 1.332-3.303 3.865-3.607 5.925-.083.575-.081 1.131-.062 1.672l.078 1.711.04 1.335c.126 1.097.132 1.755.332 2.84.138.729-.083.992-.56 1.244-.509.262-.905.286-1.146-.105-.673-1.098-1.404-2.394-1.713-3.688-.934-3.934-1.081-7.821-.433-11.556.332-1.912-.021-3.909-1.078-6.101-1.045-2.172-1.934-4.554-1.363-7.255.681-3.208 3.134-5.36 6.107-5.36.996 0 1.998.24 2.98.714 2.326 1.125 4.251 1.112 6.641-.05 2.321-1.122 4.655-.857 6.731.765 1.873 1.465 2.669 3.565 2.366 6.25-.163 1.431-.645 3.003-1.477 4.803-1.214 2.625-1.166 5.167-.983 7.097z" fill="#ec2227"/><path d="m129.449-14.271h-9.44c-.446 0-.808.36-.808.806v30.661c0 .445.361.807.808.807h3.925c.448 0 .807-.362.807-.807v-11.343h4.708c7.59 0 12.117-3.85 12.117-10.297-.001-6.523-4.075-9.827-12.117-9.827zm-4.708 4.745h4.192c5.205 0 7.138 1.379 7.138 5.082 0 3.855-2.132 5.499-7.138 5.499h-4.192z" fill="#211f1f"/><path d="m159.929-6.352c-.852-.375-1.679-.535-2.754-.535-2.217 0-4.309 1.164-5.957 3.252l-.153-1.95c-.034-.421-.386-.742-.807-.742h-3.178c-.448 0-.809.36-.809.808v22.714c0 .445.36.807.809.807h3.834c.446 0 .811-.362.811-.807v-14.425c1.708-4.136 4.016-4.584 4.938-4.584.833 0 1.269.122 1.954.335.216.066.452.042.646-.072.196-.111.333-.303.385-.522l.752-3.367c.077-.374-.112-.758-.471-.912z" fill="#211f1f"/><path d="m173.533-6.887c-3.051 0-6.202 1.033-9.363 3.072-.362.234-.48.71-.264 1.083l1.54 2.665c.116.196.303.333.523.383.222.05.448.005.637-.123 2.249-1.537 4.317-2.29 6.315-2.29.91 0 3.575 0 3.847 4.176-9.771 1.197-13.951 3.975-13.951 9.227 0 4.342 3.01 7.254 7.49 7.254 2.253 0 4.492-.843 6.979-2.641l.166 1.37c.046.408.392.712.798.712h3.181c.442 0 .806-.363.806-.807v-13.93c.002-6.545-3.088-10.151-8.704-10.151zm3.257 13.131v5.023c-2.141 1.863-3.675 2.593-5.407 2.593-2.099 0-3.163-.957-3.163-2.836-.001-1.775 1.043-3.724 8.57-4.78z" fill="#211f1f"/><path d="m200.809 3.658 7.24-8.658c.197-.244.243-.576.112-.861-.135-.284-.421-.465-.734-.465h-4.25c-.246 0-.475.111-.633.298l-8.377 10.362v-20.417c0-.444-.359-.805-.808-.805h-3.786c-.445 0-.807.361-.807.805v33.278c0 .445.361.807.807.807h3.786c.448 0 .808-.362.808-.807v-5.683l3.332-3.884 6.058 9.984c.149.24.412.388.695.388h4.202c.296 0 .571-.164.711-.421.141-.259.13-.572-.025-.824z" fill="#211f1f"/><path d="m226.309 13.815c-.055-.224-.202-.413-.408-.516-.202-.104-.438-.122-.653-.039-1.229.46-1.922.556-2.289.556-1.667 0-2.699-.6-2.699-3.584v-11.81h5.321c.445 0 .801-.361.801-.807v-3.131c0-.446-.355-.807-.801-.807h-5.321v-5.552c0-.447-.361-.809-.807-.809h-3.225c-.422 0-.771.331-.804.75l-.419 5.655-2.849.189c-.424.028-.758.38-.758.807v2.896c0 .446.363.807.811.807h2.558v11.765c0 5.56 2.457 8.378 7.303 8.378 1.237 0 2.653-.281 4.462-.882.401-.134.632-.559.528-.967z" fill="#211f1f"/><path d="m235.75-6.327h-3.829c-.447 0-.81.36-.81.808v22.714c0 .445.362.807.81.807h3.829c.445 0 .807-.362.807-.807v-22.714c-.001-.447-.362-.808-.807-.808z" fill="#211f1f"/><path d="m233.875-15.955c-2.007 0-3.465 1.381-3.465 3.286 0 1.872 1.489 3.284 3.465 3.284 1.986 0 3.479-1.412 3.479-3.284.001-1.905-1.461-3.286-3.479-3.286z" fill="#211f1f"/><path d="m173.667-15.955c-2.014 0-3.469 1.381-3.469 3.286 0 1.872 1.489 3.284 3.469 3.284s3.476-1.412 3.476-3.284c-.001-1.905-1.463-3.286-3.476-3.286z" fill="#e92327"/><g fill="#211f1f"><path d="m255.325 3.658 7.242-8.658c.198-.244.243-.576.109-.861-.132-.284-.418-.465-.73-.465h-4.256c-.245 0-.474.111-.626.298l-8.381 10.362v-20.417c0-.444-.361-.805-.807-.805h-3.788c-.445 0-.807.361-.807.805v33.278c0 .445.361.807.807.807h3.788c.445 0 .807-.362.807-.807v-5.683l3.334-3.884 6.06 9.984c.146.24.408.388.689.388h4.209c.295 0 .566-.164.706-.421.139-.259.126-.572-.029-.824z"/><path d="m276.973-6.887c-3.048 0-6.2 1.033-9.362 3.072-.362.234-.478.71-.265 1.083l1.545 2.665c.113.196.3.333.521.383.225.05.448.005.633-.123 2.256-1.537 4.318-2.29 6.32-2.29.91 0 3.571 0 3.843 4.176-9.768 1.197-13.953 3.975-13.953 9.227 0 4.342 3.017 7.254 7.495 7.254 2.249 0 4.492-.843 6.979-2.641l.168 1.37c.043.408.39.712.798.712h3.179c.445 0 .806-.363.806-.807v-13.93c-.001-6.545-3.096-10.151-8.707-10.151zm3.26 13.131v5.023c-2.142 1.863-3.678 2.593-5.408 2.593-2.101 0-3.161-.957-3.161-2.836 0-1.775 1.042-3.724 8.569-4.78z"/><path d="m121.823 27.677c2.307 0 4.286 1.857 4.286 5.092 0 3.194-1.979 5.053-4.286 5.053-2.303 0-4.284-1.858-4.284-5.053 0-3.235 1.981-5.092 4.284-5.092zm0 9.58c2.062 0 3.638-1.82 3.638-4.488 0-2.667-1.575-4.53-3.638-4.53-2.06 0-3.636 1.863-3.636 4.53-.003 2.668 1.576 4.488 3.636 4.488z"/><path d="m128.516 27.92h.523l.081 1.533h.039c1.012-1.009 2.023-1.776 3.357-1.776 1.98 0 2.909 1.175 2.909 3.678v6.227h-.606v-6.146c0-2.141-.689-3.193-2.344-3.193-1.214 0-2.103.647-3.357 1.941v7.398h-.604v-9.662z"/><path d="m138.372 22.988h.606v13.661c0 .407.163.608.405.608.078 0 .16 0 .364-.04l.121.524c-.162.039-.284.081-.524.081-.607 0-.972-.362-.972-1.293z"/><path d="m141.749 24.768c0-.448.324-.691.689-.691.362 0 .686.242.686.691 0 .404-.323.687-.686.687-.364-.001-.689-.283-.689-.687zm.365 3.152h.604v9.661h-.604z"/><path d="m145.738 27.92h.525l.082 1.533h.035c1.015-1.009 2.024-1.776 3.359-1.776 1.979 0 2.91 1.175 2.91 3.678v6.227h-.609v-6.146c0-2.141-.686-3.193-2.347-3.193-1.209 0-2.096.647-3.352 1.941v7.398h-.608v-9.662z"/><path d="m159.113 27.677c2.222 0 3.637 1.577 3.637 4.443 0 .206 0 .405-.041.648h-7.111c0 2.586 1.494 4.488 3.799 4.488 1.094 0 1.938-.361 2.668-.892l.283.53c-.729.44-1.536.926-2.992.926-2.427 0-4.406-1.899-4.406-5.053s2.021-5.09 4.163-5.09zm3.028 4.568c0-2.667-1.209-4.004-3.026-4.004-1.738 0-3.314 1.539-3.515 4.004z"/><path d="m172.937 27.677c1.17 0 1.98.445 2.993 1.212l-.041-1.819v-4.083h.604v14.592h-.526l-.078-1.292h-.042c-.809.806-1.9 1.535-3.232 1.535-2.426 0-4.003-1.777-4.003-5.053-.002-3.111 1.98-5.092 4.325-5.092zm-.281 9.58c1.129 0 2.141-.608 3.233-1.697v-5.981c-1.094-.97-1.982-1.337-2.992-1.337-2.063 0-3.638 2.022-3.638 4.53 0 2.665 1.212 4.485 3.397 4.485z"/><path d="m183.063 27.677c2.224 0 3.638 1.577 3.638 4.443 0 .206 0 .405-.037.648h-7.116c0 2.586 1.493 4.488 3.799 4.488 1.093 0 1.94-.361 2.669-.892l.281.53c-.729.44-1.534.926-2.99.926-2.428 0-4.406-1.899-4.406-5.053s2.018-5.09 4.162-5.09zm3.031 4.568c0-2.667-1.21-4.004-3.028-4.004-1.738 0-3.315 1.539-3.515 4.004z"/><path d="m188.889 27.92h.525l.081 1.533h.038c1.013-1.009 2.024-1.776 3.354-1.776 1.984 0 2.914 1.175 2.914 3.678v6.227h-.605v-6.146c0-2.141-.688-3.193-2.348-3.193-1.212 0-2.101.647-3.354 1.941v7.398h-.606z"/><path d="m198.875 28.485h-1.533v-.484l1.533-.081.083-2.832h.527v2.832h2.87v.563h-2.87v6.626c0 1.256.283 2.146 1.697 2.146.362 0 .889-.165 1.253-.326l.2.529c-.564.201-1.169.363-1.496.363-1.776 0-2.266-1.131-2.266-2.79z"/><path d="m210.196 31.557c.04-1.574-.367-3.315-2.387-3.315-1.373 0-2.546.691-3.154 1.176l-.321-.487c.605-.444 1.939-1.253 3.517-1.253 2.264 0 2.95 1.695 2.95 3.64v6.262h-.529l-.075-1.292h-.043c-1.01.806-2.226 1.535-3.516 1.535-1.495 0-2.791-.766-2.791-2.607-.001-2.163 1.981-3.173 6.349-3.659zm-3.518 5.7c1.172 0 2.223-.565 3.518-1.659v-3.516c-4.244.487-5.703 1.455-5.703 3.111 0 1.498 1.016 2.064 2.185 2.064z"/><path d="m213.682 22.988h.605v13.661c0 .407.162.608.407.608.079 0 .164 0 .363-.04l.122.524c-.162.039-.286.081-.526.081-.605 0-.971-.362-.971-1.293z"/><path d="m221.484 36.003c.808.688 1.697 1.254 3.154 1.254 1.616 0 2.464-.97 2.464-2.063 0-1.29-1.294-1.858-2.427-2.261-1.494-.525-3.15-1.094-3.15-2.75 0-1.334 1.05-2.506 3.025-2.506.974 0 1.983.405 2.672.967l-.364.488c-.646-.488-1.334-.894-2.345-.894-1.617 0-2.347.953-2.347 1.901 0 1.134 1.174 1.618 2.347 2.062 1.538.586 3.236 1.051 3.236 2.951 0 1.415-1.135 2.669-3.156 2.669-1.457 0-2.668-.606-3.521-1.335z"/><path d="m233.533 27.677c2.301 0 4.284 1.857 4.284 5.092 0 3.194-1.982 5.053-4.284 5.053-2.306 0-4.287-1.858-4.287-5.053 0-3.235 1.981-5.092 4.287-5.092zm0 9.58c2.058 0 3.635-1.82 3.635-4.488 0-2.667-1.577-4.53-3.635-4.53-2.06 0-3.639 1.863-3.639 4.53 0 2.668 1.579 4.488 3.639 4.488z"/><path d="m248.525 37.46c-.562.2-1.169.362-1.496.362-1.775 0-2.264-1.131-2.264-2.791v-6.546h-3.88v9.093h-.605v-9.093h-1.333v-.484l1.333-.081v-2.385c0-1.899.846-2.792 2.223-2.792.405 0 .892.122 1.334.324l-.203.523c-.401-.2-.81-.281-1.169-.281-1.093 0-1.577.849-1.577 2.304v2.305h3.881l.082-2.831h.523v2.831h2.873v.564h-2.873v6.628c0 1.252.283 2.145 1.696 2.145.367 0 .894-.165 1.255-.326z"/><path d="m249.456 27.92h.692l1.857 6.509c.239.886.482 1.696.686 2.548h.081c.243-.85.484-1.662.729-2.548l1.861-6.509h.845l1.86 6.509c.241.886.486 1.696.729 2.548h.081c.24-.85.486-1.662.726-2.548l1.817-6.509h.648l-2.829 9.661h-.849l-1.818-6.304c-.282-.932-.487-1.824-.768-2.75h-.081c-.241.926-.485 1.857-.81 2.789l-1.775 6.265h-.77z"/><path d="m269.698 31.557c.039-1.574-.366-3.315-2.384-3.315-1.373 0-2.548.691-3.155 1.176l-.324-.487c.605-.444 1.943-1.253 3.519-1.253 2.261 0 2.949 1.695 2.949 3.64v6.262h-.526l-.078-1.292h-.04c-1.01.806-2.226 1.535-3.519 1.535-1.493 0-2.788-.766-2.788-2.607-.001-2.163 1.981-3.173 6.346-3.659zm-3.518 5.7c1.173 0 2.225-.565 3.518-1.659v-3.516c-4.245.487-5.7 1.455-5.7 3.111 0 1.498 1.009 2.064 2.182 2.064z"/><path d="m273.194 27.92h.523l.082 1.821h.04c.646-1.173 1.575-2.064 2.748-2.064.324 0 .606.038.931.202l-.162.565c-.324-.122-.486-.162-.85-.162-.891 0-1.94.688-2.707 2.586v6.71h-.605z"/><path d="m281.99 27.677c2.227 0 3.639 1.577 3.639 4.443 0 .206 0 .405-.038.648h-7.112c0 2.586 1.492 4.488 3.798 4.488 1.095 0 1.94-.361 2.671-.892l.283.53c-.729.44-1.539.926-2.992.926-2.427 0-4.405-1.899-4.405-5.053s2.016-5.09 4.156-5.09zm3.037 4.568c0-2.667-1.214-4.004-3.034-4.004-1.735 0-3.312 1.539-3.512 4.004z"/></g></svg>